{
	"asset":{
		"generator":"Khronos glTF Blender I/O v4.0.44",
		"version":"2.0"
	},
	"extensionsUsed":[
		"KHR_materials_specular",
		"KHR_materials_ior"
	],
	"scene":0,
	"scenes":[
		{
			"name":"Scene",
			"nodes":[
				0,
				2
			]
		}
	],
	"nodes":[
		{
			"mesh":0,
			"name":"Plane",
			"scale":[
				47.16408920288086,
				47.16408920288086,
				47.16408920288086
			]
		},
		{
			"mesh":1,
			"name":"Esc3"
		},
		{
			"children":[
				1
			],
			"name":"Decor Geom Wood Sculpture"
		}
	],
	"materials":[
		{
			"doubleSided":true,
			"extensions":{
				"KHR_materials_specular":{
					"specularColorFactor":[
						1.399999976158142,
						1.399999976158142,
						1.399999976158142
					]
				},
				"KHR_materials_ior":{
					"ior":1.4500000476837158
				}
			},
			"name":"Marble",
			"normalTexture":{
				"index":0,
				"texCoord":1
			},
			"pbrMetallicRoughness":{
				"baseColorTexture":{
					"index":1,
					"texCoord":1
				},
				"metallicFactor":0,
				"metallicRoughnessTexture":{
					"index":2,
					"texCoord":1
				}
			}
		},
		{
			"doubleSided":true,
			"extensions":{
				"KHR_materials_specular":{
					"specularTexture":{
						"index":3
					}
				},
				"KHR_materials_ior":{
					"ior":1.4500000476837158
				}
			},
			"name":"CLWood",
			"pbrMetallicRoughness":{
				"baseColorTexture":{
					"index":4
				},
				"metallicFactor":0,
				"metallicRoughnessTexture":{
					"index":5
				}
			}
		}
	],
	"meshes":[
		{
			"name":"Plane",
			"primitives":[
				{
					"attributes":{
						"POSITION":0,
						"NORMAL":1,
						"TEXCOORD_0":2,
						"TEXCOORD_1":3
					},
					"indices":4,
					"material":0
				}
			]
		},
		{
			"name":"Esc-3",
			"primitives":[
				{
					"attributes":{
						"POSITION":5,
						"NORMAL":6,
						"TEXCOORD_0":7
					},
					"indices":8,
					"material":1
				}
			]
		}
	],
	"textures":[
		{
			"sampler":0,
			"source":0
		},
		{
			"sampler":0,
			"source":1
		},
		{
			"sampler":0,
			"source":2
		},
		{
			"sampler":0,
			"source":3
		},
		{
			"sampler":0,
			"source":4
		},
		{
			"sampler":0,
			"source":5
		}
	],
	"images":[
		{
			"mimeType":"image/jpeg",
			"name":"marble_04_normal",
			"uri":"marble_04_normal.jpg"
		},
		{
			"mimeType":"image/jpeg",
			"name":"marble_04_color",
			"uri":"marble_04_color.jpg"
		},
		{
			"mimeType":"image/png",
			"name":"marble_04_roughness",
			"uri":"marble_04_roughness.png"
		},
		{
			"mimeType":"image/png",
			"name":"CLWood_specular",
			"uri":"CLWood_specular.png"
		},
		{
			"mimeType":"image/jpeg",
			"name":"CLWood_color",
			"uri":"CLWood_color.jpg"
		},
		{
			"mimeType":"image/png",
			"name":"CLWood_roughness",
			"uri":"CLWood_roughness.png"
		}
	],
	"accessors":[
		{
			"bufferView":0,
			"componentType":5126,
			"count":4,
			"max":[
				1,
				0,
				1
			],
			"min":[
				-1,
				0,
				-1
			],
			"type":"VEC3"
		},
		{
			"bufferView":1,
			"componentType":5126,
			"count":4,
			"type":"VEC3"
		},
		{
			"bufferView":2,
			"componentType":5126,
			"count":4,
			"type":"VEC2"
		},
		{
			"bufferView":3,
			"componentType":5126,
			"count":4,
			"type":"VEC2"
		},
		{
			"bufferView":4,
			"componentType":5123,
			"count":6,
			"type":"SCALAR"
		},
		{
			"bufferView":5,
			"componentType":5126,
			"count":51479,
			"max":[
				0.4299834072589874,
				0.8015903830528259,
				0.42998337745666504
			],
			"min":[
				-0.42998337745666504,
				-0.0004787672369275242,
				-0.42998337745666504
			],
			"type":"VEC3"
		},
		{
			"bufferView":6,
			"componentType":5126,
			"count":51479,
			"type":"VEC3"
		},
		{
			"bufferView":7,
			"componentType":5126,
			"count":51479,
			"type":"VEC2"
		},
		{
			"bufferView":8,
			"componentType":5123,
			"count":306336,
			"type":"SCALAR"
		}
	],
	"bufferViews":[
		{
			"buffer":0,
			"byteLength":48,
			"byteOffset":0,
			"target":34962
		},
		{
			"buffer":0,
			"byteLength":48,
			"byteOffset":48,
			"target":34962
		},
		{
			"buffer":0,
			"byteLength":32,
			"byteOffset":96,
			"target":34962
		},
		{
			"buffer":0,
			"byteLength":32,
			"byteOffset":128,
			"target":34962
		},
		{
			"buffer":0,
			"byteLength":12,
			"byteOffset":160,
			"target":34963
		},
		{
			"buffer":0,
			"byteLength":617748,
			"byteOffset":172,
			"target":34962
		},
		{
			"buffer":0,
			"byteLength":617748,
			"byteOffset":617920,
			"target":34962
		},
		{
			"buffer":0,
			"byteLength":411832,
			"byteOffset":1235668,
			"target":34962
		},
		{
			"buffer":0,
			"byteLength":612672,
			"byteOffset":1647500,
			"target":34963
		}
	],
	"samplers":[
		{
			"magFilter":9729,
			"minFilter":9987
		}
	],
	"buffers":[
		{
			"byteLength":2260172,
			"uri":"untitled.bin"
		}
	]
}
