<svg width="369" height="369" xmlns="http://www.w3.org/2000/svg" xmlns:xlink="http://www.w3.org/1999/xlink" xml:space="preserve" overflow="hidden"><g transform="translate(-857 -175)"><path d="M1013.57 506.274 1187.56 464.277 1187.56 273.166 1060.93 212.861 895.438 248.969 895.438 442.667ZM1058.13 237.077 1140.92 276.498 1073.9 291.519 1016.83 304.311 939.879 262.876ZM918.5 428.891 918.5 277.559 1003.62 323.396 1003.62 474.728ZM1164.5 446.119 1026.68 479.387 1026.68 325.74 1086.58 312.31 1164.5 294.848Z" fill="#222222"/><path d="M1055.68 244.902 1063.37 244.902 1063.37 260.277 1055.68 260.277Z" fill="#222222"/><path d="M1055.68 325.621 1063.37 325.621 1063.37 340.996 1055.68 340.996Z" fill="#222222"/><path d="M1055.68 352.527 1063.37 352.527 1063.37 367.902 1055.68 367.902Z" fill="#222222"/><path d="M1055.68 271.809 1063.37 271.809 1063.37 287.184 1055.68 287.184Z" fill="#222222"/><path d="M1055.68 379.434 1063.37 379.434 1063.37 394.809 1055.68 394.809Z" fill="#222222"/><path d="M1111.77 430.344 1114.94 423.34 1128.95 429.678 1125.78 436.682Z" fill="#222222"/><path d="M1037.57 403.348 1052.59 400.075 1054.23 407.586 1039.21 410.86Z" fill="#222222"/><path d="M932.419 426.292 947.441 423.019 949.078 430.53 934.055 433.803Z" fill="#222222"/><path d="M1087.26 419.258 1090.42 412.254 1104.43 418.588 1101.26 425.593Z" fill="#222222"/><path d="M1136.29 441.435 1139.46 434.431 1153.46 440.769 1150.29 447.773Z" fill="#222222"/><path d="M1062.75 408.167 1065.91 401.162 1079.92 407.498 1076.75 414.503Z" fill="#222222"/><path d="M958.705 420.558 973.727 417.285 975.364 424.796 960.341 428.069Z" fill="#222222"/><path d="M984.994 414.824 1000.02 411.551 1001.65 419.062 986.631 422.335Z" fill="#222222"/></g></svg>