<svg width="96" height="96" xmlns="http://www.w3.org/2000/svg" xmlns:xlink="http://www.w3.org/1999/xlink" xml:space="preserve" overflow="hidden"><g transform="translate(-592 -222)"><path d="M651.1 283.4C651.1 283.5 651 283.6 651 283.6 651 283.8 651.2 284 651.5 284L654.5 284C654.4 283.6 654.4 283.2 654.6 282.9L657.3 278.6 656.1 276.6C656.1 276.5 656 276.5 656 276.5 655.8 276.4 655.5 276.4 655.4 276.6L651.1 283.4 651.1 283.4Z"/><path d="M655.6 283.9C655.7 284 655.8 284.1 656 284.1L669.6 284.1C669.8 284.1 669.9 284 670 283.9 670.1 283.8 670.1 283.6 670 283.4L663.3 272.4C663.2 272.3 663.1 272.2 662.9 272.2 662.9 272.2 662.9 272.2 662.8 272.2 662.8 272.2 662.8 272.2 662.7 272.2 662.6 272.2 662.4 272.3 662.3 272.4L655.6 283.4C655.6 283.6 655.6 283.7 655.6 283.9ZM660.1 278.6 662.8 274.2 665.6 278.7 663.8 277.6 662.7 278.6 661.6 277.6 660.1 278.6Z"/><path d="M667.8 273C667.8 273.497 667.397 273.9 666.9 273.9 666.403 273.9 666 273.497 666 273 666 272.503 666.403 272.1 666.9 272.1 667.397 272.1 667.8 272.503 667.8 273Z"/><path d="M650 271 671 271 671 285 650 285 650 271ZM647 288 674 288 674 268 647 268 647 288Z"/><path d="M614 260 674 260 674 264 614 264Z"/><path d="M643 276 620.4 276 624 279.6 624.2 280 643 280Z"/><path d="M614 268 614 269.5 616.5 272 643 272 643 268Z"/><path d="M626.8 288 643 288 643 284 625.5 284Z"/><path d="M620 282 621.1 285.5 620.5 286.1 617 285 617 285C616.2 284.2 616.2 282.9 617 282.1 617.8 281.3 619.1 281.2 620 282ZM598.5 268.7 616.2 286.4 624 289 621.4 281.2 603.7 263.5 598.5 268.7Z"/><path d="M594.4 262.5C593.8 263.1 593.9 264.1 594.5 264.7L597.4 267.6 602.6 262.4 599.7 259.5 599.7 259.5C599.1 258.9 598 258.9 597.4 259.5L594.5 262.4C594.4 262.4 594.4 262.5 594.4 262.5Z"/><path d="M604 239 604 259.5 610 265.5 610 255 678 255 678 295 610 295 610 284.5 604 278.5 604 301 684 301 684 239 604 239ZM615 249C613.9 249 613 248.1 613 247 613 245.9 613.9 245 615 245 616.1 245 617 245.9 617 247 617 248.1 616.1 249 615 249ZM622 249C620.9 249 620 248.1 620 247 620 245.9 620.9 245 622 245 623.1 245 624 245.9 624 247 624 248.1 623.1 249 622 249ZM629 249C627.9 249 627 248.1 627 247 627 245.9 627.9 245 629 245 630.1 245 631 245.9 631 247 631 248.1 630.1 249 629 249Z"/></g></svg>