<svg width="371" height="371" xmlns="http://www.w3.org/2000/svg" xmlns:xlink="http://www.w3.org/1999/xlink" xml:space="preserve" overflow="hidden"><g transform="translate(-453 -174)"><path d="M666.827 325.376 670.112 315.637 662.692 308.217 652.954 311.502C650.422 310.075 647.721 308.972 644.915 308.217L640.355 299.135 629.998 299.135 625.399 308.256C622.583 309.017 619.87 310.12 617.322 311.541L607.583 308.256 600.163 315.676 603.255 325.414C601.772 327.932 600.629 330.635 599.854 333.453L590.734 338.013 590.734 348.215 599.854 352.814C600.606 355.621 601.71 358.322 603.139 360.853L599.854 370.591 607.583 378.011 617.322 374.688C619.852 376.128 622.552 377.244 625.36 378.011L629.921 387.093 640.278 387.093 644.877 378.166C647.635 377.416 650.295 376.339 652.799 374.958L662.499 378.282 669.919 370.823 666.634 361.123C668.11 358.574 669.29 355.864 670.151 353.046L679.233 348.486 679.233 338.013 670.112 333.414C669.375 330.602 668.27 327.9 666.827 325.376ZM635.138 358.727C626.601 358.727 619.679 351.806 619.679 343.269 619.679 334.732 626.601 327.81 635.138 327.81 643.623 327.935 650.472 334.783 650.596 343.269 650.596 351.806 643.675 358.727 635.138 358.727Z" fill="#222222"/><path d="M668.335 463.032 601.825 463.032C595.668 463.395 590.97 468.681 591.332 474.838 591.666 480.49 596.174 484.998 601.825 485.331L668.335 485.331C674.492 484.968 679.19 479.682 678.827 473.525 678.494 467.873 673.986 463.365 668.335 463.032Z" fill="#222222"/><path d="M635.099 523.088C647.717 523.068 658.208 513.367 659.214 500.789L610.945 500.789C611.971 513.373 622.474 523.069 635.099 523.088Z" fill="#222222"/><path d="M731.598 345.858 731.598 342.534C730.613 289.784 687.741 247.444 634.983 247.118L634.983 247.118C582.225 247.444 539.353 289.784 538.369 342.534L538.369 345.858C538.722 357.299 540.995 368.599 545.093 379.287 549.004 389.371 554.684 398.676 561.865 406.764 570.715 416.387 580.377 435.13 584.473 443.477 585.726 445.999 588.304 447.588 591.12 447.574L678.846 447.574C681.662 447.588 684.24 445.999 685.493 443.477 689.59 435.13 699.251 416.425 708.101 406.764 715.282 398.676 720.962 389.371 724.873 379.287 728.971 368.599 731.245 357.299 731.598 345.858ZM709.338 345.51C709.063 354.391 707.327 363.165 704.198 371.48 701.264 378.969 697.024 385.877 691.677 391.885 683.098 402.097 675.744 413.277 669.764 425.198L600.202 425.198C594.291 413.246 587.001 402.027 578.483 391.769 573.136 385.761 568.896 378.853 565.962 371.364 562.767 363.06 560.965 354.286 560.629 345.394L560.629 342.612C561.321 302.034 594.284 269.431 634.867 269.185L634.867 269.185C675.451 269.431 708.414 302.034 709.106 342.612Z" fill="#222222"/><path d="M635.833 231.969C640.102 231.969 643.563 228.508 643.563 224.24L643.563 197.188C643.563 192.919 640.102 189.458 635.833 189.458 631.565 189.458 628.104 192.919 628.104 197.188L628.104 224.24C628.104 228.508 631.565 231.969 635.833 231.969Z" fill="#222222"/><path d="M544.127 265.938C547.142 268.935 552.01 268.935 555.025 265.938 558.022 262.924 558.022 258.055 555.025 255.04L535.895 235.833C532.727 232.973 527.84 233.222 524.979 236.39 522.315 239.34 522.323 243.83 524.997 246.77Z" fill="#222222"/><path d="M722.207 269.687C724.267 269.689 726.242 268.868 727.695 267.407L746.786 248.084C749.276 244.617 748.484 239.788 745.016 237.298 742.281 235.333 738.588 235.366 735.887 237.379L716.565 256.702C713.568 259.717 713.568 264.585 716.565 267.6 718.086 269.029 720.122 269.782 722.207 269.687Z" fill="#222222"/><path d="M515.799 334.38 488.747 334.38C484.479 334.38 481.018 337.841 481.018 342.109 481.018 346.378 484.479 349.839 488.747 349.839L515.799 349.839C520.068 349.839 523.529 346.378 523.529 342.109 523.529 337.841 520.068 334.38 515.799 334.38Z" fill="#222222"/><path d="M544.127 418.01 524.997 437.333C521.755 440.109 521.377 444.988 524.154 448.231 526.931 451.473 531.81 451.85 535.052 449.074 535.355 448.815 535.636 448.533 535.895 448.231L555.025 428.908C557.802 425.666 557.424 420.786 554.182 418.01 551.288 415.532 547.021 415.532 544.127 418.01Z" fill="#222222"/><path d="M727.695 416.541C724.834 413.373 719.947 413.124 716.778 415.984 713.61 418.845 713.36 423.732 716.221 426.901 716.391 427.089 716.57 427.269 716.758 427.439L736.081 446.762C738.813 450.042 743.687 450.486 746.966 447.754 750.246 445.022 750.69 440.148 747.958 436.869 747.588 436.424 747.169 436.022 746.708 435.671Z" fill="#222222"/><path d="M781.49 334.11 754.438 334.11C750.169 334.11 746.708 337.57 746.708 341.839 746.708 346.108 750.169 349.568 754.438 349.568L781.49 349.568C785.758 349.568 789.219 346.108 789.219 341.839 789.219 337.57 785.758 334.11 781.49 334.11Z" fill="#222222"/></g></svg>