<svg width="96" height="96" xmlns="http://www.w3.org/2000/svg" xmlns:xlink="http://www.w3.org/1999/xlink" xml:space="preserve" overflow="hidden"><g transform="translate(-726 -410)"><path d="M738 441 732 441 732 427 746 427 746 433 738 433 738 441Z"/><path d="M816 441 810 441 810 433 802 433 802 427 816 427 816 441Z"/><path d="M746 489 732 489 732 475 738 475 738 483 746 483 746 489Z"/><path d="M816 489 802 489 802 483 810 483 810 475 816 475 816 489Z"/><path d="M796.482 450C790.827 445.083 782.84 440 773.973 440 765.106 440 757.108 445.083 751.461 450L732 450 732 454 816 454 816 450ZM765.082 450C769.442 445.092 776.955 444.647 781.863 449.006 782.214 449.318 782.546 449.65 782.857 450Z"/><path d="M766.237 458C766.237 462.101 769.561 465.425 773.662 465.425 777.763 465.425 781.087 462.101 781.087 458 781.083 457.665 781.056 457.331 781.007 457L766.317 457C766.268 457.331 766.241 457.665 766.237 458Z"/><path d="M796.909 457C797.546 457.645 798.129 458.261 798.636 458.828 794.51 462.935 789.708 466.301 784.441 468.78 784.436 468.781 784.43 468.778 784.429 468.772 784.428 468.77 784.429 468.766 784.431 468.764 787.583 465.694 789.216 461.388 788.891 457L785.919 457C785.949 457.33 785.966 457.664 785.966 458 785.966 464.627 780.593 470 773.966 470 767.339 470 761.966 464.627 761.966 458 761.966 457.664 761.984 457.33 762.014 457L759.034 457C758.708 461.39 760.346 465.698 763.505 468.764 763.508 468.768 763.508 468.775 763.503 468.778 763.501 468.78 763.498 468.781 763.495 468.78 758.217 466.319 753.413 462.951 749.3 458.828 749.863 458.2 750.466 457.6 751.06 457L744.609 457C743.694 458.306 743.837 460.077 744.949 461.22 749.371 465.875 760.7 476 773.973 476 787.246 476 798.565 465.875 803.058 461.22 804.121 460.048 804.232 458.297 803.326 457Z"/></g></svg>