<svg width="96" height="96" xmlns="http://www.w3.org/2000/svg" xmlns:xlink="http://www.w3.org/1999/xlink" xml:space="preserve" overflow="hidden"><g transform="translate(-592 -67)"><path d="M606.5 113C602.358 113 599 116.358 599 120.5 599 124.642 602.358 128 606.5 128 610.642 128 614 124.642 614 120.5 614 116.358 610.642 113 606.5 113ZM606.5 123C605.119 123 604 121.881 604 120.5 604 119.119 605.119 118 606.5 118 607.881 118 609 119.119 609 120.5 609 121.881 607.881 123 606.5 123Z"/><path d="M617 120.5C616.999 122.444 616.454 124.349 615.427 126L656.327 126C653.745 121.844 654.393 116.454 657.887 113.029L648.11 110.323C647.567 110.14 646.974 110.4 646.741 110.923L645.818 113 637.918 113C637.863 112.995 637.822 112.947 637.827 112.892 637.828 112.872 637.836 112.853 637.849 112.837 639.157 111.414 639.064 109.2 637.641 107.892 636.217 106.584 634.003 106.677 632.695 108.1 632.494 108.319 632.322 108.562 632.182 108.825 632.151 108.871 632.089 108.882 632.043 108.851 632.019 108.835 632.003 108.809 632 108.78L632 105C632 104.448 631.552 104 631 104L629.109 104C628.211 104 627.321 104.17 626.486 104.5L610.537 110.81C614.447 112.443 616.995 116.263 617 120.5Z"/><path d="M684.791 120.479 674.809 116.179C676.259 119.352 676.021 123.039 674.177 126L684 126C685.105 126 686 125.105 686 124L686 122.316C686 121.517 685.525 120.795 684.791 120.479Z"/><path d="M606.5 110C607.343 110.003 608.182 110.108 609 110.313L609 105C609 103.343 607.657 102 606 102L594 102 594 117 596.613 117C598.097 112.811 602.056 110.008 606.5 110Z"/><path d="M665.25 113C661.108 113 657.75 116.358 657.75 120.5 657.75 124.642 661.108 128 665.25 128 669.392 128 672.75 124.642 672.75 120.5 672.75 116.358 669.392 113 665.25 113ZM665.25 123C663.869 123 662.75 121.881 662.75 120.5 662.75 119.119 663.869 118 665.25 118 666.631 118 667.75 119.119 667.75 120.5 667.75 121.881 666.631 123 665.25 123Z"/></g></svg>