<svg width="96" height="96" xmlns="http://www.w3.org/2000/svg" xmlns:xlink="http://www.w3.org/1999/xlink" xml:space="preserve" overflow="hidden"><g transform="translate(-371 -56)"><path d="M452 107 445.1 95 445.1 94.5C445.7 77.9 432.7 64 416.1 63.4 399.5 62.8 385.6 75.7 385 92.3 385 93 385 93.8 385 94.5 385 104 389.3 112.9 396.8 118.7L396.8 144 428.4 144 428.4 132 433.3 132C439.8 132 445.1 126.7 445.1 120.2 445.1 120.1 445.1 120.1 445.1 120L445.1 114 449.5 114C452.1 113.7 454.4 110.7 452 107ZM389.5 84.5 395 84.5 395 80.5C393.9 79.7 393.7 78.1 394.5 77 395.3 75.9 396.9 75.7 398 76.5 399.1 77.3 399.3 78.9 398.5 80 398.4 80.2 398.2 80.4 398 80.5L398 84.5 402 84.5 402 91.5C403.1 92.3 403.3 93.9 402.5 95 401.7 96.1 400.1 96.3 399 95.5 397.9 94.7 397.7 93.1 398.5 92 398.6 91.8 398.8 91.6 399 91.5L399 87.5 388.6 87.5C388.9 86.5 389.1 85.5 389.5 84.5ZM417.3 101.4C415.9 101.4 414.8 100.3 414.8 98.9 414.8 98.8 414.8 98.6 414.8 98.5L412.2 95.9 408 100.1 408 107.5C409.1 108.3 409.3 109.9 408.5 111 407.7 112.1 406.1 112.3 405 111.5 403.9 110.7 403.7 109.1 404.5 108 404.6 107.8 404.8 107.6 405 107.5L405 106.5 398.3 106.5 393.6 101C392.2 101.1 391 100.1 390.9 98.7 390.8 97.3 391.8 96.1 393.2 96 394.6 95.9 395.8 96.9 395.9 98.3 395.9 98.5 395.9 98.8 395.9 99L399.7 103.5 405 103.5 405 98.9 410.1 93.8 407 90.6 407 72.5C405.9 71.7 405.7 70.1 406.5 69 407.3 67.9 408.9 67.7 410 68.5 411.1 69.3 411.3 70.9 410.5 72 410.4 72.2 410.2 72.4 410 72.5L410 75.5 418 75.5 418 82.5C419.1 83.3 419.3 84.9 418.5 86 417.7 87.1 416.1 87.3 415 86.5 413.9 85.7 413.7 84.1 414.5 83 414.6 82.8 414.8 82.6 415 82.5L415 78.5 410 78.5 410 89.4 417 96.4C417.1 96.4 417.2 96.4 417.3 96.4 418.7 96.4 419.8 97.5 419.8 98.9 419.8 100.3 418.7 101.4 417.3 101.4L417.3 101.4ZM429.5 81.2C428.1 81.2 427 80.1 427 78.7 427 78.6 427 78.6 427 78.5L423 74.9 423 67.6C424 67.9 425 68.3 426 68.7L426 73.6 429 76.3C429.2 76.3 429.3 76.3 429.5 76.3 430.9 76.3 432 77.4 432 78.8 432 80.2 430.9 81.2 429.5 81.2L429.5 81.2Z"/></g></svg>