<svg id="bd028975-c93c-4e94-b9ea-dcaf1ecde232" data-name="Ebene 1" xmlns="http://www.w3.org/2000/svg" viewBox="0 0 2560 1440"><defs><style>.e12c7e60-2aed-4e61-a3ca-d04c9a311a55{fill:#111;}.b37c1626-5e79-477a-9e67-53a4c997ef3c{fill:#80142b;}.f8d73daa-290d-4dd8-9d4f-b07f5a7ceeda{fill:#00a19c;}</style></defs><rect class="e12c7e60-2aed-4e61-a3ca-d04c9a311a55" width="2560" height="1440"/><path class="b37c1626-5e79-477a-9e67-53a4c997ef3c" d="M296.42,501.153h57.141l109.6,218.568h-20.3l-28.413-56.515H235.222l-28.414,56.515H186.824ZM406.954,646.969,342.32,518.638H307.349L242.715,646.969Z" transform="translate(0 -2)"/><path class="f8d73daa-290d-4dd8-9d4f-b07f5a7ceeda" d="M466.271,480.856l26.7-7.025h13.7v245.89H485.24V494.556l-18.969,4.917Z" transform="translate(0 -2)"/><path class="b37c1626-5e79-477a-9e67-53a4c997ef3c" d="M543.354,501.153H758.8v16.861H562.4v84.3H740.066v16.236H562.4V702.86H758.8v16.861H543.354Z" transform="translate(0 -2)"/><path class="b37c1626-5e79-477a-9e67-53a4c997ef3c" d="M864.021,602.631,767.539,501.153h24.043L878.7,593.264h33.1l87.115-92.111h24.043L926.469,602.631l99.293,117.09h-23.418L911.482,611.686H879.009L788.147,719.721H764.729Z" transform="translate(0 -2)"/><path class="b37c1626-5e79-477a-9e67-53a4c997ef3c" d="M1136.915,501.153h57.14l109.6,218.568h-20.3l-28.413-56.515H1075.716L1047.3,719.721h-19.984Zm110.533,145.816-64.634-128.331h-34.971l-64.634,128.331Z" transform="translate(0 -2)"/><path class="b37c1626-5e79-477a-9e67-53a4c997ef3c" d="M1319.567,501.153h41.216l176.1,200.458h14.675V501.153h17.8V719.721h-40.9L1352.041,519.263h-14.676V719.721h-17.8Z" transform="translate(0 -2)"/><path class="b37c1626-5e79-477a-9e67-53a4c997ef3c" d="M1600.578,501.153c39.343,0,73.69-1.874,115.529-1.874,80.559,0,139.884,50.895,139.884,111.158S1796.666,721.6,1716.107,721.6c-41.839,0-76.81-1.874-115.529-1.874Zm115.529,203.268c72.128,0,120.838-44.962,120.838-93.984s-48.71-93.984-120.838-93.984c-34.97,0-64.008,1.561-96.794,1.873V702.548C1650.85,702.86,1681.449,704.421,1716.107,704.421Z" transform="translate(0 -2)"/><path class="b37c1626-5e79-477a-9e67-53a4c997ef3c" d="M1878.47,501.153h215.445v16.861h-196.4v84.3h177.664v16.236H1897.517V702.86h196.4v16.861H1878.47Z" transform="translate(0 -2)"/><path class="b37c1626-5e79-477a-9e67-53a4c997ef3c" d="M2114.519,501.153c56.827,0,86.177-1.874,143.63-1.874,61.824,0,108.66,32.161,108.66,73.689,0,35.6-35.6,65.259-82.12,70.879l78.685,75.874h-26.54l-75.563-74.938H2133.253v74.938h-18.734Zm153.309,127.394c47.149,0,79.934-27.477,79.934-55.267,0-28.726-34.658-56.827-89.3-56.827-50.895,0-83.681,1.873-125.208,1.873V628.235C2155.422,628.235,2222.866,628.547,2267.828,628.547Z" transform="translate(0 -2)"/><path class="f8d73daa-290d-4dd8-9d4f-b07f5a7ceeda" d="M196.6,693.277c40.685,0,74.068-1.564,113.971-1.564,47.727,0,78.762,26.6,78.762,59.463,0,37.555-40.946,73.025-97.279,73.025-34.426,0-63.375-2.087-97.54-4.7l-7.825,56.334H171.045Zm97.54,116.579c45.9,0,79.284-27.383,79.284-56.854,0-24.777-24.254-46.945-64.679-46.945-34.687,0-64.418,1.3-98.323,1.565L196.6,805.162C229.726,807.771,259.458,809.856,294.144,809.856Z" transform="translate(0 -2)"/><path class="f8d73daa-290d-4dd8-9d4f-b07f5a7ceeda" d="M415.938,693.277c45.64,0,69.9-1.564,116.057-1.564,46.684,0,79.284,23.472,79.284,54.768,0,31.558-32.6,60.768-74.85,65.984l54.508,63.375H569.029L517.39,813.247H414.9l-8.868,62.593H390.379ZM524.432,799.686c40.946,0,70.938-26.342,70.938-50.6,0-22.43-23.994-43.033-65.2-43.033-40.945,0-67.026,1.565-100.409,1.565l-13.04,91.8C434.455,799.425,488.18,799.686,524.432,799.686Z" transform="translate(0 -2)"/><path class="f8d73daa-290d-4dd8-9d4f-b07f5a7ceeda" d="M736.726,690.669c59.2,0,96.236,32.079,96.236,79.807,0,55.029-44.6,107.972-122.577,107.972-59.2,0-95.975-32.079-95.975-79.8C614.41,743.613,658.746,690.669,736.726,690.669ZM712.472,864.1c66.505,0,104.321-44.336,104.321-91.8,0-40.946-31.3-67.287-81.893-67.287-66.765,0-104.321,44.6-104.321,91.8C630.579,837.763,661.875,864.1,712.472,864.1Z" transform="translate(0 -2)"/><path class="f8d73daa-290d-4dd8-9d4f-b07f5a7ceeda" d="M863.477,693.277c31.557,0,59.462-1.564,93.367-1.564,60.245,0,100.409,36.512,100.409,81.892,0,52.943-54.769,103.8-126.489,103.8-33.9,0-61.55-1.564-92.847-1.564ZM932.85,863.061c63.636,0,108.494-44.337,108.494-87.37,0-37.3-33.122-69.634-86.587-69.634-28.166,0-51.117,1.3-77.458,1.565L855.652,861.5C880.95,861.757,904.944,863.061,932.85,863.061Z" transform="translate(0 -2)"/><path class="f8d73daa-290d-4dd8-9d4f-b07f5a7ceeda" d="M1070.291,796.034l14.344-102.757h15.909L1086.2,796.3c-5.738,40.685,21.647,67.809,68.592,67.809s82.152-27.124,87.89-67.809l14.605-103.018H1273.2l-14.605,102.757c-7.042,49.553-49.552,82.414-105.886,82.414-51.378,0-83.457-27.385-83.457-69.635A110.1,110.1,0,0,1,1070.291,796.034Z" transform="translate(0 -2)"/><path class="f8d73daa-290d-4dd8-9d4f-b07f5a7ceeda" d="M1403.6,690.669c24.515,0,51.9,5.477,67.809,18.257l-2.608,18.256c-15.388-15.909-41.989-22.168-66.766-22.168-63.636,0-111.1,36.512-111.1,91.02,0,41.468,33.9,68.07,89.716,68.07,24.776,0,52.161-6.52,71.982-22.168l-2.347,18.255c-19.56,12.78-47.206,18.257-71.982,18.257-64.418,0-103.278-31.557-103.278-80.067C1275.023,734.484,1329.531,690.669,1403.6,690.669Z" transform="translate(0 -2)"/><path class="f8d73daa-290d-4dd8-9d4f-b07f5a7ceeda" d="M1480.8,693.277h180.736l-1.825,14.084H1577.3L1553.562,875.84h-15.91l23.734-168.479h-82.413Z" transform="translate(0 -2)"/><path class="f8d73daa-290d-4dd8-9d4f-b07f5a7ceeda" d="M1676.921,693.277h15.648L1667.011,875.84h-15.649Z" transform="translate(0 -2)"/><path class="f8d73daa-290d-4dd8-9d4f-b07f5a7ceeda" d="M1820.36,690.669c59.2,0,96.237,32.079,96.237,79.807,0,55.029-44.6,107.972-122.578,107.972-59.2,0-95.976-32.079-95.976-79.8C1698.043,743.613,1742.38,690.669,1820.36,690.669ZM1796.105,864.1c66.5,0,104.322-44.336,104.322-91.8,0-40.946-31.3-67.287-81.893-67.287-66.765,0-104.321,44.6-104.321,91.8C1714.213,837.763,1745.51,864.1,1796.105,864.1Z" transform="translate(0 -2)"/><path class="f8d73daa-290d-4dd8-9d4f-b07f5a7ceeda" d="M1947.109,693.277h33.383l118.145,167.436h11.735l23.473-167.436h14.6L2122.891,875.84h-33.383L1971.625,708.4h-11.736L1936.156,875.84h-14.605Z" transform="translate(0 -2)"/><path class="f8d73daa-290d-4dd8-9d4f-b07f5a7ceeda" d="M2147.666,833.851c35.208,22.428,62.593,30.513,100.67,30.513,46.423,0,91.8-19.821,91.8-51.117,0-22.95-22.69-31.035-82.675-28.167-58.942,2.869-94.15-8.346-94.15-37.556,0-32.078,38.86-56.855,106.668-56.855,33.122,0,60.768,4.434,84.5,18.257l-2.086,15.386c-23.733-15.125-50.856-20.081-84.239-20.081-51.639,0-88.673,16.431-88.673,41.207,0,19.3,25.82,27.906,80.588,25.3,64.94-3.13,95.976,8.085,95.976,40.424,0,44.6-59.724,67.288-109.8,67.288-38.6,0-65.723-7.824-100.671-28.427Z" transform="translate(0 -2)"/></svg>