<svg width="96" height="96" xmlns="http://www.w3.org/2000/svg" xmlns:xlink="http://www.w3.org/1999/xlink" xml:space="preserve" overflow="hidden"><g transform="translate(-721 -224)"><path d="M763.608 264.625 763.608 264.29C764.03 253.172 755.359 243.816 744.241 243.394 733.122 242.972 723.767 251.643 723.345 262.762 723.326 263.271 723.326 263.781 723.345 264.29 723.318 270.629 726.237 276.62 731.245 280.506L731.245 297.459 752.42 299.5 752.42 289.418 755.7 289.418C757.813 289.414 759.837 288.571 761.327 287.073 762.798 285.541 763.615 283.497 763.605 281.373L763.605 277.353 766.553 277.353C768.295 277.153 769.835 275.141 768.228 272.662ZM754.831 266C753.45 266 752.331 264.881 752.331 263.5 752.331 262.119 753.45 261 754.831 261 756.212 261 757.331 262.119 757.331 263.5 757.331 264.881 756.212 266 754.831 266Z"/><path d="M800 263.5C800 264.881 798.881 266 797.5 266 796.119 266 795 264.881 795 263.5 795 262.119 796.119 261 797.5 261 798.881 261 800 262.119 800 263.5Z"/><path d="M815.331 268.5C815.331 251.112 806.303 238 794.331 238 782.359 238 773.331 251.112 773.331 268.5 773.331 284.905 781.368 297.5 792.331 298.87L792.331 303 787.331 303C786.226 303 785.331 303.895 785.331 305L785.331 309 803.331 309 803.331 305C803.331 303.895 802.436 303 801.331 303L796.331 303 796.331 298.87C807.293 297.5 815.331 284.905 815.331 268.5ZM811.331 268.5C811.331 279.956 806.891 289.491 800.49 293.262L800.49 289.119 797.273 289.119C795.202 289.115 793.218 288.287 791.758 286.819 790.317 285.319 789.516 283.317 789.525 281.237L789.525 277.3 786.636 277.3C784.929 277.1 783.419 275.133 784.995 272.7L789.525 264.819 789.525 264.491C789.143 255.895 794.431 248.061 802.546 245.2 807.822 249.645 811.331 258.315 811.331 268.5Z"/></g></svg>