<svg width="96" height="96" xmlns="http://www.w3.org/2000/svg" xmlns:xlink="http://www.w3.org/1999/xlink" xml:space="preserve" overflow="hidden"><g transform="translate(-371 -420)"><path d="M447 442 447 478 391 478 391 442ZM381 482C381 483.105 381.895 484 383 484L413.54 484 398.17 499.37C397.389 500.151 397.389 501.419 398.17 502.2 398.951 502.982 400.219 502.982 401 502.2L417 486.2 417 504C417 505.105 417.895 506 419 506 420.105 506 421 505.105 421 504L421 486.23 437 502.23C437.781 503.02 439.055 503.026 439.845 502.245 440.635 501.464 440.641 500.19 439.86 499.4L424.46 484 455 484C456.105 484 457 483.105 457 482 457 480.895 456.105 480 455 480L453 480 453 439 455 439C456.105 439 457 438.105 457 437 457 435.895 456.105 435 455 435L421 435 421 433C421 431.895 420.105 431 419 431 417.895 431 417 431.895 417 433L417 435 383 435C381.895 435 381 435.895 381 437 381 438.105 381.895 439 383 439L385 439 385 480 383 480C381.895 480 381 480.895 381 482Z"/><path d="M403 446 411 446 411 474 403 474Z"/><path d="M415 455 423 455 423 474 415 474Z"/><path d="M427 462 435 462 435 474 427 474Z"/></g></svg>