<svg width="276" height="276" xmlns="http://www.w3.org/2000/svg" xmlns:xlink="http://www.w3.org/1999/xlink" xml:space="preserve" overflow="hidden"><g transform="translate(-258 -171)"><path d="M393.412 227.637C386.8 227.637 381.337 233.1 381.337 239.712 381.337 246.325 386.8 251.788 393.412 251.788 400.025 251.788 405.487 246.325 405.487 239.712 405.487 233.1 400.025 227.637 393.412 227.637Z" fill="#FFFFFF"/><path d="M369.263 298.075C369.263 304.744 363.856 310.15 357.188 310.15 350.519 310.15 345.112 304.744 345.112 298.075 345.112 291.406 350.519 286 357.188 286 363.856 286 369.263 291.406 369.263 298.075Z" fill="#FFFFFF"/><path d="M427.625 243.737 420.438 247.188C419.862 249.487 418.713 251.5 417.562 253.513L420.15 260.987 414.4 266.737 406.925 264.15C404.912 265.3 402.9 266.163 400.6 266.737L397.15 273.638 389.1 273.638 385.65 266.45C383.35 265.875 381.337 265.013 379.325 263.862L371.85 266.45 366.1 260.7 368.688 253.225C367.538 251.212 366.675 249.2 366.1 246.9L358.913 243.45 358.913 235.4 366.1 231.95C366.675 229.65 367.538 227.637 368.688 225.625L366.388 218.15 372.138 212.4 379.612 214.988C381.625 213.837 383.638 212.975 385.938 212.4L389.388 205.212 397.438 205.212 400.888 212.113C403.188 212.688 405.2 213.55 407.213 214.7L414.688 212.113 420.438 217.863 417.85 225.337C419 227.35 419.862 229.363 420.438 231.663L427.625 235.112 427.625 243.737ZM391.4 302.1 384.212 305.55C383.638 307.85 382.775 309.862 381.625 311.875L383.925 319.35 378.175 325.1 370.7 322.513C368.688 323.662 366.675 324.525 364.375 325.1L361.212 332 353.163 332 349.712 324.812C347.413 324.237 345.4 323.375 343.388 322.225L335.913 324.525 330.163 318.775 332.75 311.3C331.6 309.287 330.737 307.275 330.163 304.975L322.975 301.525 322.975 293.475 330.163 290.025C330.737 287.725 331.6 285.712 332.75 283.7L330.163 276.225 335.913 270.475 343.388 273.062C345.4 271.913 347.413 271.05 349.712 270.475L353.163 263.288 361.5 263.288 364.95 270.475C367.25 271.05 369.263 271.913 371.275 273.062L378.75 270.475 384.5 276.225 381.913 283.7C383.062 285.712 383.925 287.725 384.5 290.025L391.688 293.475 391.4 302.1 391.4 302.1ZM490.875 312.737 471.037 278.237 471.037 276.8C472.188 245.175 456.088 215.562 428.775 199.175 401.463 183.075 367.825 183.075 340.513 199.175 313.2 215.275 297.1 245.175 298.25 276.8 298.25 304.112 310.612 329.7 332.175 346.375L332.175 419.112 423.025 419.112 423.025 384.612 437.112 384.612C446.312 384.612 454.938 380.875 461.263 374.55 467.588 367.938 471.037 359.312 471.037 350.112L471.037 332.862 483.688 332.862C491.162 332 497.775 323.375 490.875 312.737Z" fill="#FFFFFF"/></g></svg>