<svg width="285" height="286" xmlns="http://www.w3.org/2000/svg" xmlns:xlink="http://www.w3.org/1999/xlink" xml:space="preserve" overflow="hidden"><g transform="translate(-746 -142)"><path d="M198.906 46.0156C198.906 59.1324 188.273 69.7656 175.156 69.7656 162.039 69.7656 151.406 59.1324 151.406 46.0156 151.406 32.8989 162.039 22.2656 175.156 22.2656 188.273 22.2656 198.906 32.8989 198.906 46.0156Z" fill="#FFFFFF" transform="matrix(1 0 0 1.00351 746 142)"/><path d="M68.2812 161.797C40.375 161.797 17.8125 184.359 17.8125 212.266 17.8125 240.172 40.375 262.734 68.2812 262.734 96.1875 262.734 118.75 240.172 118.75 212.266 118.75 184.359 96.1875 161.797 68.2812 161.797ZM68.2812 250.859C46.9062 250.859 29.6875 233.641 29.6875 212.266 29.6875 190.891 46.9062 173.672 68.2812 173.672 89.6562 173.672 106.875 190.891 106.875 212.266 106.875 233.641 89.6562 250.859 68.2812 250.859Z" fill="#FFFFFF" transform="matrix(1 0 0 1.00351 746 142)"/><path d="M216.719 161.797C188.812 161.797 166.25 184.359 166.25 212.266 166.25 240.172 188.812 262.734 216.719 262.734 244.625 262.734 267.188 240.172 267.188 212.266 267.188 184.359 244.625 161.797 216.719 161.797ZM216.719 250.859C195.344 250.859 178.125 233.641 178.125 212.266 178.125 190.891 195.344 173.672 216.719 173.672 238.094 173.672 255.312 190.891 255.312 212.266 255.312 233.641 238.094 250.859 216.719 250.859Z" fill="#FFFFFF" transform="matrix(1 0 0 1.00351 746 142)"/><path d="M165.359 118.156C167.734 120.531 170.703 121.719 173.672 121.719L207.812 121.719C214.344 121.719 219.688 116.375 219.688 109.844 219.688 103.312 214.344 97.9688 207.812 97.9688L178.719 97.9688C178.719 97.9688 144.875 63.8281 144.281 63.5312 136.859 57 125.578 57.8906 119.047 65.3125L78.6719 111.328C72.1406 118.75 73.0312 130.031 80.1562 136.562 81.9375 138.047 83.7188 139.234 85.7969 139.828L85.7969 139.828 130.328 157.641 130.328 211.969C130.328 218.5 135.672 223.844 142.203 223.844 148.734 223.844 154.078 218.5 154.078 211.969L154.078 149.625C154.078 144.875 151.109 140.422 146.953 138.641L114 124.688 141.016 93.8125 165.359 118.156Z" fill="#FFFFFF" transform="matrix(1 0 0 1.00351 746 142)"/></g></svg>