<svg width="96" height="96" xmlns="http://www.w3.org/2000/svg" xmlns:xlink="http://www.w3.org/1999/xlink" xml:space="preserve" overflow="hidden"><g transform="translate(-481 -56)"><path d="M570.5 84.3C570.5 88.7183 566.918 92.3 562.5 92.3 558.082 92.3 554.5 88.7183 554.5 84.3 554.5 79.8817 558.082 76.3 562.5 76.3 566.918 76.3 570.5 79.8817 570.5 84.3Z"/><path d="M545.9 85.5 545.9 85.5C531.6 81.5 518.3 87.9 511.6 91.3L511.6 91.3C508.6 92.8 506.5 95.8 506.5 99.4L506.5 116.2 489.8 124.1C487.8 125 487 127.4 487.9 129.4 488.6 130.8 490 131.7 491.5 131.7 492.1 131.7 492.7 131.6 493.2 131.3L512.2 122.3C513.6 121.6 514.5 120.2 514.5 118.7L514.5 104.1 525.3 111.9 518 125.8C517 127.8 517.7 130.2 519.7 131.2 520.3 131.5 520.9 131.7 521.6 131.7 523 131.7 524.4 130.9 525.1 129.6L534.1 112.6C535 110.8 534.5 108.6 532.9 107.5L524.9 101.8 544.6 101.8 544.6 127.8C544.6 130 546.4 131.8 548.6 131.8 550.8 131.8 552.6 130 552.6 127.8L552.6 93.3C552.5 89.4 549.6 86.1 545.9 85.5Z"/></g></svg>