<svg width="370" height="370" xmlns="http://www.w3.org/2000/svg" xmlns:xlink="http://www.w3.org/1999/xlink" xml:space="preserve" overflow="hidden"><g transform="translate(-221 -229)"><path d="M236.802 385.094 236.802 415.927C236.802 420.167 240.271 423.635 244.51 423.635 248.75 423.635 252.219 420.167 252.219 415.927L252.219 408.219 283.052 408.219C278.042 414.771 275.344 422.479 275.344 431.344 275.344 452.542 292.688 469.885 313.885 469.885L340.865 469.885 340.865 485.302 356.281 485.302 356.281 469.885 371.698 469.885 371.698 485.302 387.115 485.302 387.115 469.885 402.531 469.885 402.531 485.302 417.948 485.302 417.948 469.885 444.927 469.885C466.125 469.885 483.469 452.542 483.469 431.344 483.469 422.865 480.771 414.771 475.76 408.604L489.635 408.99C515.458 410.146 560.167 417.083 560.167 451.385L560.167 451C560.167 455.24 563.635 458.708 567.875 458.708 572.115 458.708 575.583 455.24 575.583 451L575.583 350.792C575.583 346.552 572.115 343.083 567.875 343.083 563.635 343.083 560.167 346.552 560.167 350.792 560.167 385.094 515.458 392.031 489.635 393.188L471.906 393.188 417.948 393.188 417.948 377.771 402.531 377.771 402.531 393.188 387.115 393.188 387.115 377.771 371.698 377.771 371.698 393.188 356.281 393.188 356.281 377.771 340.865 377.771 340.865 393.188 252.219 393.188 252.219 385.479C252.219 381.24 248.75 377.771 244.51 377.771 240.271 377.771 236.802 380.854 236.802 385.094ZM417.948 454.469 417.948 408.219 444.927 408.219C457.646 408.219 468.052 418.625 468.052 431.344 468.052 444.062 457.646 454.469 444.927 454.469L417.948 454.469ZM387.115 454.469 387.115 408.219 402.531 408.219 402.531 454.469 387.115 454.469ZM356.281 454.469 356.281 408.219 371.698 408.219 371.698 454.469 356.281 454.469ZM313.885 408.219 340.865 408.219 340.865 454.469 313.885 454.469C301.167 454.469 290.76 444.062 290.76 431.344 290.76 418.625 301.167 408.219 313.885 408.219Z" fill="#FFFFFF"/></g></svg>