<svg width="96" height="96" xmlns="http://www.w3.org/2000/svg" xmlns:xlink="http://www.w3.org/1999/xlink" xml:space="preserve" overflow="hidden"><g transform="translate(-717 -56)"><path d="M721.1 96.5 721.1 104.5C721.1 105.6 722 106.5 723.1 106.5 724.2 106.5 725.1 105.6 725.1 104.5L725.1 102.5 733.1 102.5C731.8 104.2 731.1 106.2 731.1 108.5 731.1 114 735.6 118.5 741.1 118.5L748.1 118.5 748.1 122.5 752.1 122.5 752.1 118.5 756.1 118.5 756.1 122.5 760.1 122.5 760.1 118.5 764.1 118.5 764.1 122.5 768.1 122.5 768.1 118.5 775.1 118.5C780.6 118.5 785.1 114 785.1 108.5 785.1 106.3 784.4 104.2 783.1 102.6L786.7 102.7C793.4 103 805 104.8 805 113.7L805 113.6C805 114.7 805.9 115.6 807 115.6 808.1 115.6 809 114.7 809 113.6L809 87.6C809 86.5 808.1 85.6 807 85.6 805.9 85.6 805 86.5 805 87.6 805 96.5 793.4 98.3 786.7 98.6L782.1 98.6 768.1 98.6 768.1 94.6 764.1 94.6 764.1 98.6 760.1 98.6 760.1 94.6 756.1 94.6 756.1 98.6 752.1 98.6 752.1 94.6 748.1 94.6 748.1 98.6 725.1 98.6 725.1 96.6C725.1 95.5 724.2 94.6 723.1 94.6 722 94.6 721.1 95.4 721.1 96.5ZM768.1 114.5 768.1 102.5 775.1 102.5C778.4 102.5 781.1 105.2 781.1 108.5 781.1 111.8 778.4 114.5 775.1 114.5L768.1 114.5ZM760.1 114.5 760.1 102.5 764.1 102.5 764.1 114.5 760.1 114.5ZM752.1 114.5 752.1 102.5 756.1 102.5 756.1 114.5 752.1 114.5ZM741.1 102.5 748.1 102.5 748.1 114.5 741.1 114.5C737.8 114.5 735.1 111.8 735.1 108.5 735.1 105.2 737.8 102.5 741.1 102.5Z"/></g></svg>