<svg width="369" height="369" xmlns="http://www.w3.org/2000/svg" xmlns:xlink="http://www.w3.org/1999/xlink" xml:space="preserve" overflow="hidden"><g transform="translate(-51 -175)"><path d="M183.955 422.576 140.06 378.719 183.955 334.862 194.795 345.701 161.815 378.719 194.795 411.737 183.955 422.576Z" fill="#222222"/><path d="M287.045 422.576 276.205 411.737 309.185 378.719 276.205 345.701 287.045 334.862 330.94 378.719 287.045 422.576Z" fill="#222222"/><path d="M209.752 422.237 246.526 333.5 260.73 339.386 223.956 428.124Z" fill="#222222"/><path d="M81.75 240.344 81.75 478.656 389.25 478.656 389.25 240.344ZM346.969 263.406C351.215 263.406 354.656 266.848 354.656 271.094 354.656 275.34 351.215 278.781 346.969 278.781 342.723 278.781 339.281 275.34 339.281 271.094 339.281 266.848 342.723 263.406 346.969 263.406ZM320.062 263.406C324.308 263.406 327.75 266.848 327.75 271.094 327.75 275.34 324.308 278.781 320.062 278.781 315.817 278.781 312.375 275.34 312.375 271.094 312.375 266.848 315.817 263.406 320.062 263.406ZM293.156 263.406C297.402 263.406 300.844 266.848 300.844 271.094 300.844 275.34 297.402 278.781 293.156 278.781 288.91 278.781 285.469 275.34 285.469 271.094 285.469 266.848 288.91 263.406 293.156 263.406ZM366.188 455.594 104.812 455.594 104.812 301.844 366.188 301.844Z" fill="#222222"/></g></svg>