<svg id="Ebene_1" data-name="Ebene 1" xmlns="http://www.w3.org/2000/svg" xmlns:xlink="http://www.w3.org/1999/xlink" viewBox="0 0 510.94 510.94"><defs><style>.cls-1{fill:#ba1826;}.cls-2,.cls-3,.cls-7{fill:#c6b179;}.cls-2,.cls-4,.cls-5,.cls-6,.cls-8{stroke:#fff;stroke-miterlimit:10;}.cls-10,.cls-11,.cls-4,.cls-5,.cls-6,.cls-8,.cls-9{fill:none;stroke-width:4px;}.cls-5{stroke-dasharray:6.566 2.814 6.566 2.814;}.cls-6{stroke-dasharray:6.566 2.814 6.566 2.814 6.566 2.814;}.cls-7{fill-rule:evenodd;}.cls-8{stroke-dasharray:7 3 7 3 7 3;}.cls-10,.cls-11,.cls-9{stroke:#c6b179;stroke-linecap:round;stroke-linejoin:round;}.cls-10{stroke-opacity:0.85;}.cls-11{stroke-opacity:0.7;}.cls-12{fill:#fff;}</style></defs><circle class="cls-1" cx="255.47" cy="255.47" r="255.47"/><path class="cls-2" d="M159.225,389.807a22.621,22.621,0,1,0,22.62,22.621A22.621,22.621,0,0,0,159.225,389.807Zm0,36.394A13.773,13.773,0,1,1,173,412.428,13.773,13.773,0,0,1,159.225,426.2Z" transform="translate(-0.88 -0.398)"/><circle class="cls-2" cx="158.345" cy="412.03" r="6.43"/><path class="cls-2" d="M159.225,186.3a22.62,22.62,0,1,0,22.62,22.62A22.62,22.62,0,0,0,159.225,186.3Zm0,36.393A13.773,13.773,0,1,1,173,208.919,13.773,13.773,0,0,1,159.225,222.692Z" transform="translate(-0.88 -0.398)"/><circle class="cls-2" cx="158.345" cy="208.521" r="6.43"/><path class="cls-2" d="M353.6,186.3a22.62,22.62,0,1,0,22.62,22.62A22.62,22.62,0,0,0,353.6,186.3Zm0,36.393a13.773,13.773,0,1,1,13.773-13.773A13.773,13.773,0,0,1,353.6,222.692Z" transform="translate(-0.88 -0.398)"/><circle class="cls-2" cx="352.718" cy="208.521" r="6.43"/><path class="cls-2" d="M353.6,389.807a22.621,22.621,0,1,0,22.62,22.621A22.621,22.621,0,0,0,353.6,389.807Zm0,36.394a13.773,13.773,0,1,1,13.773-13.773A13.773,13.773,0,0,1,353.6,426.2Z" transform="translate(-0.88 -0.398)"/><circle class="cls-2" cx="352.718" cy="412.03" r="6.43"/><line class="cls-3" x1="178.912" y1="230.565" x2="238.917" y2="290.57"/><line class="cls-4" x1="178.912" y1="230.565" x2="181.387" y2="233.04"/><line class="cls-5" x1="183.377" y1="235.03" x2="195.649" y2="247.302"/><line class="cls-6" x1="196.644" y1="248.297" x2="235.447" y2="287.101"/><line class="cls-4" x1="236.442" y1="288.096" x2="238.917" y2="290.57"/><line class="cls-3" x1="335.338" y1="230.565" x2="275.333" y2="290.57"/><line class="cls-4" x1="335.338" y1="230.565" x2="332.864" y2="233.04"/><line class="cls-5" x1="330.874" y1="235.03" x2="318.602" y2="247.302"/><line class="cls-6" x1="317.607" y1="248.297" x2="278.803" y2="287.101"/><line class="cls-4" x1="277.808" y1="288.096" x2="275.333" y2="290.57"/><circle class="cls-3" cx="255.53" cy="310.276" r="6.431"/><path class="cls-7" d="M256.41,288.044a22.63,22.63,0,1,1-22.61,22.63A22.627,22.627,0,0,1,256.41,288.044Zm13.767,22.63a13.767,13.767,0,1,0-13.767,13.767A13.762,13.762,0,0,0,270.177,310.674Z" transform="translate(-0.88 -0.398)"/><line class="cls-8" x1="354.13" y1="238.145" x2="354.13" y2="384.276"/><line class="cls-8" x1="159.764" y1="238.145" x2="159.764" y2="384.276"/><polyline class="cls-9" points="33.51 222.663 10.963 256.578 33.51 288.373"/><polyline class="cls-10" points="50.265 228.013 31.238 256.633 50.265 283.464"/><polyline class="cls-11" points="66.964 232.814 51.216 256.502 66.964 278.71"/><polyline class="cls-9" points="471.259 222.871 493.806 256.787 471.259 288.582"/><polyline class="cls-10" points="454.504 228.222 473.531 256.842 454.504 283.673"/><polyline class="cls-11" points="437.805 233.023 453.554 256.711 437.805 278.919"/><image width="508" height="720" transform="translate(163.54 202.928) scale(0.363)" xlink:href="../STKM%20Wappen/Picture1.png"/><path class="cls-12" d="M108.928,136.91A70.4,70.4,0,0,1,89.645,145.5q-10.006,2.886-19.936,6.113-4.86-14.957-9.719-29.911,10.428-3.388,20.937-6.42a62.441,62.441,0,0,1,21.884-2.556Zm-3.372-1.152q-2.628-10.191-5.257-20.383a63.452,63.452,0,0,0-18.582,2.641q-8.946,2.58-17.833,5.421Q67.8,135.7,71.722,147.965q8.538-2.73,17.133-5.209A72.865,72.865,0,0,0,105.556,135.758Z" transform="translate(-0.88 -0.398)"/><path class="cls-12" d="M111.138,110.211q-1.531.366-3.061.739l-.675-2.769q1.536-.375,3.074-.742Zm6.632,27.769q-1.465.35-2.928.706l-5.415-22.2q1.516-.37,3.035-.732Q115.116,126.867,117.77,137.98Z" transform="translate(-0.88 -0.398)"/><path class="cls-12" d="M164.9,136.922A67.227,67.227,0,0,1,145.4,143.7a67.92,67.92,0,0,1-20.643,1.065q-.324-1.413-.65-2.826a65.074,65.074,0,0,0,20.746-1.037,69.6,69.6,0,0,0,16.849-5.431q-.7-4.218-1.4-8.435a72.734,72.734,0,0,1-17.1,5.426,70.838,70.838,0,0,1-21,1.193l-3.675-15.983a65.155,65.155,0,0,1,41.941-8.193Zm-5.059-12.7q-1.024-6.166-2.048-12.331a65.092,65.092,0,0,0-35.8,6.992l2.742,12.2a72.178,72.178,0,0,0,17.934-1.417A72.138,72.138,0,0,0,159.839,124.223Z" transform="translate(-0.88 -0.398)"/><path class="cls-12" d="M167.6,99.32q-1.551.23-3.1.466-.216-1.409-.43-2.817,1.557-.238,3.114-.468Zm4.172,28.244q-1.484.219-2.966.445l-3.447-22.588q1.536-.236,3.074-.462Z" transform="translate(-0.88 -0.398)"/><path class="cls-12" d="M206.342,123.485q-4.421.4-8.837.87a70.242,70.242,0,0,1-20.95-.66q-1.944-13.965-3.886-27.931,1.558-.216,3.118-.426.569,4.238,1.138,8.474,12.13-1.627,24.3-2.8l.272,2.837q-12.115,1.164-24.195,2.785.988,7.359,1.976,14.718a71.545,71.545,0,0,0,17.926.167q4.436-.468,8.877-.874Z" transform="translate(-0.88 -0.398)"/><path class="cls-12" d="M250.355,117.77a69.246,69.246,0,0,1-20.55,3.965,70.037,70.037,0,0,1-20.865-1.745q-.357-4.108-.713-8.219a59.062,59.062,0,0,1,20.791-4.715,60.93,60.93,0,0,1,18.15,1.585l-.133-5.248a61.058,61.058,0,0,0-18.3-1.63,57.483,57.483,0,0,0-20.961,4.778q-.124-1.444-.25-2.889a64.669,64.669,0,0,1,42.493-2.279Zm-3-1.881q-.054-2.175-.11-4.349a64.287,64.287,0,0,0-35.818,1.919q.178,2.167.355,4.336a78.454,78.454,0,0,0,35.573-1.906Z" transform="translate(-0.88 -0.398)"/><path class="cls-12" d="M258.671,120.9q-1.5.012-2.99.03-.194-15.7-.385-31.4,1.569-.019,3.14-.031Q258.553,105.2,258.671,120.9Z" transform="translate(-0.88 -0.398)"/><path class="cls-12" d="M319.867,123.488q-1.466-.133-2.93-.258,1.135-13.227,2.27-26.453a117.627,117.627,0,0,0-11.647-2.348q-6.043-.909-12.777-1.29-.684,14.259-1.369,28.518-1.468-.07-2.936-.134.617-14.262,1.235-28.524-6.737-.242-12.838.121a117.46,117.46,0,0,0-11.8,1.276q-.075,13.275-.151,26.55-1.494-.009-2.99-.01.014-14.351.026-28.7A118.856,118.856,0,0,1,291.838,90.1q1.542.066,3.084.141a119.005,119.005,0,0,1,14.094,1.505,107.916,107.916,0,0,1,13.439,3.157Q321.16,109.2,319.867,123.488Z" transform="translate(-0.88 -0.398)"/><path class="cls-12" d="M366.613,126.2a69.664,69.664,0,0,1-20.978.1,70.135,70.135,0,0,1-20.207-5.558q.969-9.777,1.936-19.554,1.543.153,3.087.313-.914,8.8-1.828,17.605A78.741,78.741,0,0,0,364,123.8q1.41-8.737,2.819-17.474,1.509.243,3.016.494Q368.223,116.512,366.613,126.2Z" transform="translate(-0.88 -0.398)"/><path class="cls-12" d="M412.632,135.626a70.22,70.22,0,0,1-21-1.474,70.573,70.573,0,0,1-19.794-7.056q.249-1.43.5-2.857a68.626,68.626,0,0,0,19.878,7.123,72.49,72.49,0,0,0,17.974,1.669q.728-3.039,1.453-6.079-19.1-4.563-38.392-7.934.709-4.064,1.421-8.127a66.1,66.1,0,0,1,41.855,8.753l-.687,2.818a59.059,59.059,0,0,0-20.114-7.887,61.225,61.225,0,0,0-18.351-1.224q-.3,1.672-.6,3.346,19.334,3.475,38.487,8.145Z" transform="translate(-0.88 -0.398)"/><path class="cls-12" d="M458.039,148.469a78.239,78.239,0,0,1-40.227-11.608q2.012-7.95,4.021-15.9a65.752,65.752,0,0,1,41.274,11.91L460.7,140.29a72.911,72.911,0,0,1-21.215-3.106,74.805,74.805,0,0,1-16.823-6.981q-.711,2.76-1.424,5.52A72.555,72.555,0,0,0,437.9,142.66a69.755,69.755,0,0,0,21.034,3.051Q458.487,147.09,458.039,148.469ZM458.4,137.5l1.188-3.715a65.684,65.684,0,0,0-35.235-10.169q-.488,1.888-.974,3.776a74.733,74.733,0,0,0,16.888,7.051A75.546,75.546,0,0,0,458.4,137.5Z" transform="translate(-0.88 -0.398)"/></svg>